<mxfile host="Electron" modified="2024-01-06T14:48:53.125Z" agent="Mozilla/5.0 (Windows NT 10.0; Win64; x64) AppleWebKit/537.36 (KHTML, like Gecko) draw.io/21.2.8 Chrome/112.0.5615.165 Electron/24.2.0 Safari/537.36" etag="6ETC3WGsZQ941j63Fk_3" version="21.2.8" type="device">
  <diagram name="Page-1" id="8-piWOon1QWujdeduLmw">
    <mxGraphModel dx="1100" dy="497" grid="1" gridSize="10" guides="1" tooltips="1" connect="1" arrows="1" fold="1" page="1" pageScale="1" pageWidth="827" pageHeight="1169" math="0" shadow="0">
      <root>
        <mxCell id="0" />
        <mxCell id="1" parent="0" />
        <mxCell id="jmE8yRZkAJ0zDngy9UX7-1" value="" style="shape=image;verticalLabelPosition=bottom;labelBackgroundColor=default;verticalAlign=top;aspect=fixed;imageAspect=0;image=data:image/png,iVBORw0KGgoAAAANSUhEUgAAAnEAAAHiCAYAAACHl5pIAAAAAXNSR0IArs4c6QAAAARnQU1BAACxjwv8YQUAAAAJcEhZcwAAFxEAABcRAcom8z8AAG1CSURBVHhe7d0HWFTXoj78+/3vPTk5J73Yu7H3EmM0liRqjKaYGDW22HvsxmgssVew94pd7A17772ABRVFQaRMg6EPzMz77bXYxK6AKLPZ7y/PemDWXjPgBJh3Vv0fEBEREZHmMMQRERERaRBDHBEREZEGMcQRERERaRBDHBEREZEGMcQRERERaRBDHBEREZEGMcQRERERaRBDHBEREZEGMcQRERERaRBDHBEREZEGMcQRERERaRBDHBEREZEGMcQRERERaRBDHBEREZEGMcQRERERaRBDHBEREZEGMcQRERERaRBDHBEREZEGMcQRERERaRBDHBEREZEGMcQRERERaRBDHBEREZEGMcQRkeYFBgTC+5K3eouISB8Y4ohI82ZMm4Ymv/yCqKgotYaIKPNjiCMiTQsLC8OX1WsgR5as2L59u1pLRJT5McQRkabNnT0beXLkRPaPs6BZkyaIi4tTrxARZW4McUSkWaIXrlbNL2UvnAhyBfPmw3YvL/UqEVHmxhBHRJol5sJl++hjFMiTFyWKFEPWDz9Ck18aIZa9cUSkAwxxRKRJd/z9Ua1KVfzaqDEG/vknWrf8DUMHD0bRTwph7Zo1aisiosyLIY6INCchIQFzZs3CwP5/wmq1wnPVanTr0kXWL1+6FH1794HRaFRbExFlTgxxRKQ5EeEROHvmDOx2u7ztsWgROrRrB6e8Bfh4++DOnTvqLSKizIkhjog0LznEiZ44IiK9YIgjIs1jiCMiPWKIIyLNY4gjIj1iiCMizWOIIyI9YogjIs1jiCMiPWKIIyLNY4gjIj1iiCMizWOIIyI9YogjIs1jiCMiPWKIIyLNY4gjIj1iiCMizWOIIyI9YogjIs1jiCMiPWKIIyLNY4gjIj1iiCMizWOIIyI9YogjIs1jiCMiPWKIIyLNY4gjIj1iiCMizWOIIyI9YogjIs1jiCMiPWKIIyLNY4gjIj1iiCMizWOIIyI9YogjIs1jiCMiPWKIIyLNY4gjIj1iiCMizWOIIyI9YogjIs1jiCMiPWKIIyLNY4gjIj1iiCMizWOIIyI9YogjIpcQHx+Pu3fuICAgQK1JOYY4ItIjhjgiylChoaHYuGEDlihBrEbVLzBl0mT1SsoxxBGRHjHEEVGGEj1vK5Ytw6GDB/FpufKYOH6CeiXlGOKISI8Y4ojIJTicTlSvUvWlQlxiYqJaQ0SU+THEEZFLiImJQbXPq7AnjlLFbncgIdGO+Hg7oqNtiLc9GeQTEuwIDY1C0H0rAgPDESBKQDhu+5tx67YJ9+5FKG8AHGrrJMp7Ctne53IIrl4Nk0V8fsk7GN7eIbhw8T7Cw2PV1g+IuqPH7uLkyYAnyrHjd3H9ukF+zw8T39/Zs/ewd68f9h+49UjZu+8WDh26/dSvdS8oAnv23nziPqJs2XoNl32NassH4pSyW/k6W7f6YpvXo2XL5qs4cPgOopKaPsLnuhlbtlx94j6ibN5yDbf9lK/ldMCpvJFy2mzKF4qD8X44vJTrW7c9eZ9Nyn2OHfGHLVZpS2nGEEdELiGlIU7MofO9dk15MbyOGzduyOHYCWPHoVnjX3Hl8hXcunVLXhNt/P391XuRq4qNS4DJFIMgJZBcv2GAj08ITp4KUILQHcTEPhnKj58IwPiJhzDB7TBGjd6PIX/vxsBBu9Cv/w507LxRhpfH3bxpwm+t16Le9x745ttFqKOU2t8sQvUv56Fy1Vlo0WoNwsIejS4JCQ75uPk+mYASpafIUri4OwoUmoiChd3wcfZRT/1aBw7eVq6NRv5CbiigtCtQRBTlfsrnWXKNRedumxETZ1dbJzFZbfipySrkyD8RBYpNVsoUFCieVPIUnoQSFWfh9BWT2vqB5RtvIFtBd+QrMQ35Sz5aPsjnjiF/bIbz5k3YL19F4kVvOM+ew93tR1Gh8kzkLvbkfbIXmYYa1WbAZ8pyJHgsRdwCD8TPmY/oqbMxoNF05Cw6FfmKT0X+Eg+KuJ2t6DTM/GkEHH37ILJHP0R26434Tl1xsHFfFCyh/BuKKW2Vf8vDJUvByfip5lQYvW+q/xpKC4Y4InIJKQ1xVqsVwcHBCAkJkSUsLAzTp0zBb81b4F5goAx5ol60MRoM6r3odXM4nIiIiFOCthG3bpvhFF1bD7FYYjFm3EE0bbEajX9dhR8aLEWtOgtRreY8lKs4HWUrTJM9ZY+bqIS3/7zzN3LnG4c8+ccjb8EJyKeU/J9MRPZcYzBp8lG15QOXL4egarU5+EQJVMVLTZZFhLKSZZRgVswdPzdajtDHQpzomRsz7gA+VQLP17UXoG79xfj2u8UyCNb7YQlq1FqAg8fuqq0fOO9rxre/rEbDFuuUshY/N1uDxi3WoHmb9fil6SpMmXYccfFqb6F4TuJiEX4rCEN6b0Cjb2ejef3ZaPbtTDSrPRVNa7qj8RcT0LrmeFwYMAm2seMRPXgEov/4C9HdesGrfnc0LdQHrYr0VkqvpFJYKYV6otEnfTC/ZDNYK1dDeLnKMJf6FJHFysCvUCV0K9ARLQp0R6sC3dAqv1LExwK/o9knPdE3b2v4vJ0fEf/3Xxj+v7dg/H9vwfC/72BO1m/QvLDydZTHblU4ufTCb0ppWqQf1mWrjpg334HxrY+VkgXhb3+E0x+VRJuivdGyWF+0LtZHLeLzvvi1YC8Mr/oHIs5dTnouKE0Y4ojIJbzMcOpSDw90bN/+iaBAr4fRFIN9+/2wfMUF2UP2e48tMhjVqrMAFT+biZ69t8Fme7T3yWiMxi+NVyBHnrEoVXYqKnw2A5Wrzpa9Y19+vQC16y7CrVtP9j4dPHQbg4bshvvkI5g1+yQWLDyDxUvOYZXnJaxd54Nr18LUlg9ERyfAWwyD+oTA1zdMBsu7dy24GxAuP4aERMJuf/JnJyLWgWCLDaFRDhjjlO/ZBhiUj4bIRIQaYxEXHQdndDScFgscBiMc94MRd9MfIQfPIGTLXgR7rEPQ5AUI+tsN9/8ciXsd+yLkty6IaNoK4fV+QniNb2CpVB2msp8jsHBF+OcvC/88peGfuyT8cxTH7WxFcDtLIfh/WBAhbyrh6P/egeH/3oXhjfeUz99F8Ls5cTdXcQTkKYmA/GUQULAcApTHCShWCQElPkdw0QowFyoFc9GyMJeoAIsS5MTXCqpcC/eq1MW9avVwr8Z3uFfnZwTVa4ygH5sj+JfWCG/WBtaW7WBt3RGRnbrLnjVTn8EI6TcUoQNHInToOIQOn4iwcdMQNn46wibMgHXqHMTNmI3Y2fMRt2ipUpYg2mMFTGu2KGUrTJ7Kx3VeMHvtk8W0eTciDp6AIypafbYpLRjiiMglOBwOubBhsvsktSblOCfu1YuNTcDt22ZYrWJW1aO277gue7dEz1iuvOOQLdcYOewoetSqVp+Lfv23Iz6590klerr27vPDytUXZQA8dz4IV5UAJuanmc0x8utlaCYX89YiI4CwEOC6L3D2DHDoEJybNsGxcBHsk6cg9s9BSthpj4j6PyO8Zl2YlYBkyVsEkbkKIDJHfkRmzQPrxzlhfT8bIt7Ngoi3PoRFBDBR3soC4wc5YcxeAOZPSsJaqgKiK1VFdM3aiKldDzH1GyC2YRPENW+F2FbtENW+CyK79ETUH4MQPWw0ose6IX7KDCTOnI3EhYthX7EKjnXr4fDaDuf+/cDhw7CfOInESz5IvOYL+21/2O8GwhkaqqRQJehGhAO2eOUXT/n/4lQCdnLBo/P1HsU3Sa6GIY6IMlR0dDS8vb2xe+cuFC9cBB3atldeL8/IuW0pxRCX/kSv5s2bRmzYeBljxh5Ax84bUOfbhbK363E+l0PlfLSuv2+Ww51Ll5/HVq9rciL/lathCA6JdMleUmdMLOx37iLh9FnEb9uBuPmLETNqPKL6DkBkuy6IaNAY4V8q4Uz0YOUqDOO72WUvmOGN92F480MY//NRUhh7J6u8ZspVCJZSlWCpXFO537fK/ZvA2qqDnCcWPWQEYsa7I3bGHMQtXYH4NesRv8ULtt37kHDsBBLOnkfilatK0AqAIzgEDrNZfn9Ez8MQR0QZKiQ4WAlhizF39hy4T3TD9ClTsWDePHht26a2eDGGuPQjVl2OGLkPvzZbjRpfzUOhom7ImnO07FkTw57uk56ccyZ61cQct5gY13r+xSpJpzUSjpAQGdTiPNchZvJ0RPXqj4iffk0azqxQFeZCpWHKll8JZR/C8P/ehuFf78lgZsqSF6bchWVPmRiODK/5DSKa/IbIrr0QPWIsYqYrgWzFath27JaPn3jlGuy3bsMeECiHVh0mJYiJ4VZufUOvCEMcEWUoMYwqjtxKDmCix8YmbottClKIIS79LFh0Fjlyj0WufONQpfocuehg4KCdWLnqklw5GhXlmltCOAwGJF6/IXu14lZ4yuHGyPbdEP5VPZhESMtRUA5fGv7zUVJQ+/cHMriJ+WKy56z2d4ho1ELO/4oeMxGxCzxg27odCWfOy6FIR3gEnLGxSjBUfsbsj87vI8ooDHFEpHkMcakjgvLZc/eeuvrzmm8Yxo4/KBcpXLwUjLg41+tFclgsSDx3AXFrNyBm0rSknrUffoG5zGdJ88zkUOeHMqgZ3voY5oIlEF69NqxNWiJKhLRR4xA7bzFs23Yg4fQ52AMC4IyOUR+dSDsY4ohI8xjiUiYy0oZNm6+ia7fNcguPwUP3uP5U9cRE2G/fQfzW7Ur4Gg9r604Ir1VfDm8a38she9VEYDN+mBumnJ/A8mk1WJu3RdTAYYhb6AHbnn1IPH9Rzn1zRljVByXKHBjiiEjzGOKez2CIxoqVF/HTL8tRpPgk5Mg9Tq4cFXPfEh47qSCjia067NeuI37DFkQPGo7wbxvAXKSMHPoUc9XEFhtyGLRERbkiVCxAiJkwGbatO5DoewMOownOmBgxTq8+IlHmxRBHRJrHEPd0YqHBmnU+MryJhQlig9xv63vAbdIRXLoUrLbKWKJ3TC46WOGJqAFDEP7NDzDlKQzj21mSVoEqxVSwJMLr/CC32IiZOBnx27Yrge160vw0Ih1jiCMizWOIe7oIazy++3GJXKggThuYv/A07tyxqFczjiM0DPEbtyLqr78R8f0vMBcuA8ObH8D4b6W8mw3mImVhbfyb3O4jfs0GJJw8DUdIqHpvIkrGEEdEmscQ92xe230xecpR3A/OuPlgzqgoJN70Q6zHcrk5rqXiFzBmzZc0n+29HDLEiQ1zY0aNg81rh1wNyvlrRC/GEEdEmscQJ4ZObYhWiqsQqz0TzpxD7NwFiGjUHKZ8xWQvmziH05S9gNyjLbJbL8QuXib3VuO2HUSpxxBHRJqn9xB308+Ebj02w33SkSeOt3rdEi9cQuz0WbA2awNT/uIw/Pt9uXrUlLcorD//iphxk2Dbvgt2Do8SvTSGOCLSPD2HuF27bqBu/cXImmMMvqq1AAEB4eqV18TphD04BLHLVirBrTXMxcsnHdD+349gKlACEY1bIHbBYiQo4c5penJfOiJKO4Y4ItI8PYa4hAQ75i04LbcKEYfON2vhiaNH78gjsF4Hh9EI28HDiOo3EOaylWF8L7vc/sNcqBQiGjaTZ4SKLT/EKQdE9GowxBGR5uktxFmt8Rg5ah8KF3dHwUITMWjIbhiM0erVV8t+/SZiZ86Vq0qNH+eBUZwz+mEuRNRtgJixbnIlqdPJPdqIXgeGOCLSPD2FOHHQfJ9+XvJsU3Eg/azZJ1/90VgOpzyTNKrfX3JlqTjOyvhWFphLfoqovgMQv2O33DaEiF4vhjgi0jw9hbjo6Hh06LwBFT+bAc813mrtq+GwhMuTEKzN28Gcr1jSytIseRFe90fEzl4Au/8dOLmqlCjDMMQRkebpbTg1OCQSJ08FqLfSn/1+MOJWr00aMv0wd9JctwIlYG3XBfGbtnGeG5GLYIgjIs3T48KGV0GcWxo7ZyHCv64Pw9tZYHzzQ5hLV0L00JFIOHpcbUVEroIhjog0LzOHuMjI+Fe+95vDYELs9DmwVKsD438/hvGtj2H5rAZi3KfKkxaIyDUxxBGR5mXWEGc0xaBdxw34a/BuhIen/xCm7HlbuhLhNb9JOnD+zQ8RXr2O3B6ECxWIXB9DHBFpXmYMcdHRNvwxYAdy5hmLGl/Ng79/+m2U67QlIG7DZkR81xDGd7LB+OYHCP+iVlJ4Cw5WWxGRq2OIIyLNy4whbqL7EeQtMAGVq87G3n3pN6SZcPiIPIReLFgwvvE+LGUrI2bydNjvvLqFEkT0ajDEEZHmZbYQt3adD4qVnIyiJSZhtWf6bCNi972OqN79YcpbJGm1aZGyiB44NOnweSLSJIY4ItK8zBTiLl4KRrWac5En/3hMcDus1qad0xKOmFnzYS7zGQz/ehem7AUQ2a03Es6cU1sQkVYxxBGR5mWWEBcaGoVfm61Ctlxj0KXbZjkv7mUk7D+IiJ+bytWmYu6bONPUtnuvPLSeiLSPIY6INC+zhDiLJQZdu29G/e89cP26Qa1NPUdIKKIGDYcpTxF5yoKlzGeInTEXzgir2oKIMgOGOCLSvMw0nBphjUNgYLh6K5XsdsRv24HwWvWTzjfNmg/WLj2ReOWq2oCIMhOGOCLSvMy2sCEt7IH35AH1xqz5YRCrTr+ohfiNW9SrRJQZMcQRkebpPcTFb9kmN+wV4c2UqxCi/hwMe0CgepWIMiuGOCLSPC2HuMuXQ2AyRau3UsdhNCJ68HCYcn4C47/eheWrb2HbvosLF4h0giGOiDRPqyHOz8+Er2svwG+t1+DevQi1NmUSTp1BxHe/yKOyjFnyIbr/X7Dfu6deJSI9YIgjIs3TYoizJzrwx5/bkT3XWPzSZAVCQiLVK8/ndDoRu8ADpmLlYPjXe7B8Wg3x6zex941IhxjiiEjztBjiduy8Lk9lKF9xBo4dv6vWPp8jNBSRvf+E8f2csgfO2qItEq9dV68Skd4wxBGR5mktxBkM0WjUZCVy5R2HUaMPqLXPJ4ZPw79rmLR4IW8RRI91gzMySr1KRHrEEEdEmqe1EDd77il5uP13Py7B/fsv3oA3btUamMXw6f++C8tn1RG/Y7d6hYj0jCGOiDRPSyHuytVQVK46GwULu2HDxitq7dM5o6IQPXI8jB/nheG/H8Paoh3s12+qV4lI7xjiiEjztBTitnn5okKl6WjTbp08neFZ7Lf9Edm6Iwz/+Shp9emIcXBw+JSIHsIQR0Sap7Xh1BMnA+DjE6LeelLC6bOw1KgDw/+9C3OJCohbsVq9QkT0AEMcEWme1kLc84jTF8wlKyZtH1KzDhJOnFKvEBE9iiGOiDQvU4S4xETEzpkvV57K7UOatYb91m31IhHRkxjiiEjztB7inNExiP57NIwf5obx3WxyLziH0aReJSJ6OoY4ItI8Vw9x128YsXatD6zWeLXmAYfZjKge/WB4OytMWfIiZrw7nHHPXvBARJSMIY6INM/VQ9zgobuRr+AETJpyBImJDrUWsAcEwtqsDQz/+RCmfEURu3CJkuoeXCcieh6GOCLSPFcOcb6+Bnz+xWwUKzkJO3c9OCIr8fpNhH/bQC5gMBUvD5vXTvUKEVHKMMQRkea5cogbNeYAcuQei87dNiE2LlHWJZ6/CMsXtZQA9y4slarDdvykrCciSg2GOCLSPFcNcX5+JnxZawGKFp8Er103ZF3CoaMwV6wm94ALr1UfCecvyXoiotRiiCMizXPFEOd0AjNnn0TOvOPQ9Lc1EEsV7AcOwlL6MxngIn5ohMTrScGOiCgtGOKISPNcMcQFBobjm3qLUaDoJGzc7Q8cUgJcyQpyDpz1l+aw3wlQWxIRpQ1DHBFpniuGuMNH/FGqwgz82GwdgpeuR1SZijC88T6sLdrCHvzsI7eIiFKKIY6INM8VQ1xMbCLO+hhxaPgiGIuUhemN9xDZpjMcoWFqCyKil8MQR0Sa56oLG7BtG6xFy8D47w8Q2bkHHAajeoGI6OUxxBGR5rliiIvfuBXmQqVgfFMJcF17wREeoV4hIkofDHFEpHkuF+I2boT5k1JyDlxk9z5wRljVC0RE6Ychjog0z1VCnN3ugO+aPfAt/oUcQo3q0hMOi0W9SkSUvhjiiEjzXCXE3Vq3F/VKDEXDPN1xrW0/wMwAR0SvDkMcEWmeK4Q45/69WF7xN+QtPAm16yxAaKBZvUJE9GowxBGR5mV0iHMeO4aQ8tXQJl8X5Co2FbNmnVCvEBG9OgxxRKR5GRniEs9dQPSnVXDsw9IoW9od5T+fDW8fbuZLRK8eQxwRaV5GhbjEa76IqPoVrG9/hPHluyBPkcno0Wcb4uIS1RZERK8OQxwRaV5GhDj77TsI/+ZHWN54D/e//AENvpyOfMWmwHOtt9qCiOjVYogjIs173SHOHmZARIMm8jD7+Jq1sNV9E/KXnoGaXy/A3btckUpErwdDHBFp3usMceLoLGvztjC+8T7MpSsB58/DNyAKI0btxwwuaCCi14ghjog073WFOEdMDCJ/7w3Dmx/AXLQcbPsOqleSxMdzLhwRvT4McUSkea8lxCmPHT1sNIxvZ4Upb1HEb9uhXiAiyhgMcUSkea8jxMXOmAvjh7lkiV20VK0lIso4DHFEpHmvOsTFe66HKXtBGN/LgRi3KXDa7eoVIqKMwxBHRJr3KkOcbc8+mD4pBcN/P0LUn0OAxAfz3k6fCcSy5RcQGBih1hARvT4McUSkea8qxCWcPQ9z2c9heOMDWNt1hSP80bDWu+82ZMkxGlOmHYPT6VRriYheD4Y4ItK8VxHi7H63EV6zLgz/9y4ifvoVjlCDeiXJ/ftWVKs5F0VLTsKhw7fVWiKi14chjog0L71DnMNogrVpaxj+9S7Cq9VC4g0/9coD69ZfRqGibvi12SoYjdFqLRHR68MQR0Sal54hzmmzIarfQBj+/QHMJT9F4qkz6pUHxMhp775eyJ5rDCZMPKzWEhG9XgxxRKR56RnixOpT49tZYMpTBPGbtqq1j/K/Y0aduotQpvw0HDrkr9YSEb1eDHFEpHnpFeLilqyA8eM8ssTMWaDWPmn1mkvIU2A8GjRcjpgYm1pLRPR6McQRkealR4iz7dwNc8GSMLz1MaL/HqXWPp2b+xHkzjceI0ftV2uIiF4/hjgi0ryXDXEJFy7CUrEqjP/+AJGdusMZE6NeeTr/Oxas9ryEy1dC1RoiotePIY6INO9lQpwjJAQR9X+C4X/fQcSPjeEIe3QrESIiV8UQR0Sal9YQ54yNg7VTdxngLJVrIvHKVfUKEZHrY4gjIs1LU4iz2xE9fAwMb2WB+ZNSsO3aq14gItIGhjgi0ry0hLi4BR5JK1Gz5EWcx3K1lohIOxjiiEjzUhvibPsOwvRJSRjf+hgxo8Yl7d6bAvMXnEbvPttw9uw9tYaIKOMwxBGR5qUmxNmv35Dz38SZqJEdf4cz+vkrUZPFxSXih5+WImeecfBc463WEhFlHIY4ItK8lIY4h8GIiJ+bwfC/7yK87o9wBN1Xr7zYiRN3UaHSDNT8ej5u3jSqtUREGYchjog0LyUhTpyJGtm9Dwz//hCWClWRcO68eiVlps88gZx5xqJzt02w2x1qLRFRxmGIIyLNS0mIi50+G8b3csCYqxDit21Xa1NGDKV26bYZ+QpOwIJFZ9VaIqKMxRBHRJr3ohAXv2kbTEp4M76XHTGz5qm1Ked73YDqX85D+U+n4wpPaSAiF8EQR0Sa97wQl3jhIsylPoXhzQ8Q1e8vOayaWmvX+SBH7rFo1GQl4uMT1VoioozFEEdEmvesEGcPDELENz/A8H/vIaJhMzhMZvVKyjkcTkyddhzFSk7C5ClH1VoioozHEEdEmve0EOeMjUVkh99heON9WD7/EonXb6hXUi82JgGnTgfA3z/1IZCI6FVhiCMizXsixDmdiB47Eca3ssBUoITc3JeIKLNhiCOidBEbGwu73a7eenmpeax/Qpx6n7i1G+RxWqaP8yBu4RJZR0SU2TDEEdFLuXv3DjZt3Ih1a9fKj5cuXFSvpExgQAAWLliAI4cPw8fbG6dPncKqFStx/tw5tcWLJYW49hBLDpynz8JcrDwM//0YUUNGpPRELSIizWGII6I081ZCV6cOHbBl02YYjUYZwLp26oTNSphLqZMnT6JY4ULIkyMn8uXKjUoVKmJg/z9xPyhIbfFiMsR164bYm36IqtsAhn+9B2uLtnBEWNUWaWOz2bmxLxG5LIY4IkoTW3w82rdpi9EjR6k1SbZu2YLv69WHISxMrXm+fXv34u8hQ3D0yBEcOngQN65fV6+k3MIlS9C5RUtYf+sA8xvvI7xGHdjv3FWvpt3e/X5o12E9liw9D7uDXXpE5FoY4ogoTYLv30el8hWwbs1atSbJjRs38GW16tjhlbJTEXbu2IEVy5bB6XTCYjbDYrGoV1Ju7caNmJq7IGI/zovw4uVhP3JMvfJyRo7Zj7ffG4befb04LEtELochjojS5MyZMyhVrDi8tm5Va5KIcPdF5c8xdfJkteb59uzejW6dO8v5dIsWLMCMadOUjwthMpnUFo8SK1DFIorYuDjExdsQbbPBb8Ik3HnrY4RnL4CI+YsQZ7er1+PVe6VebGwCWrVZi0+KuGGVp7daS0TkOhjiiChNxNBn6eIlsN3LS61JEhISgs8rVcK4MWPVmucLuHsXixctQpg6/BoVGYm2rVujV48eTz2BISgoCBcvXID3pUvwvnkDN1auhqlYOVjfz4HbnX6Hz5Ur8FaKaHPd11e9V+r5XA5BtZrz8PkXs+WxW4JYMbt1y1aMHjkSY0aNZmFx3TJylPJxFC77XJY/u5Q5McQRUZqcOX0GJYsWk3PgHiZCVtXKlTFl0iS15vni4+LUzx5YvXIVypcug3NPWaEap7S3RkQgMjYGlkveCK3yFSz/fh9+tesj5NZtWGNiYLVaZZuoqCj1Xqm3YeNl5CkwHo1/XamEt6Sx1Hg5D7AN6tWtiyGDBmNA/z9ZWFyu/PXnAPTv9wdKlygpF/1Q5sUQR0Rpcj/ovgxanqtWqzVJrl65ghpfVIPX1m1qzbNFKEGredOmSmhbqdYk2bp5C8qVKi3nyz2TEqhiWndC9LvZcfSDHJjWszdi1EsvSxy1NXrsQeTKOw5jxz/YKFgM4/7euQuWLuHec+TaHA4HOrXvgIXzF6g1lBkxxBFRmthsNrRt1RpDBw9Ra5J4rl6NenXq/jM8KohFC7t37ZLB7uFNfENDQvBtnW+wY/ujiyCGD/0bX1WvgbDQULXmUU7lMaKHjYHx7axIqFQDizp1RdtuXZGQmD6H0xuM0fKw+4KF3bB3n59aq4a4Ll2xYvlytYbIdXXp2IkhLpNjiCOiNLt06RJatfwN27ZskUOXZ06flsFu/bp1aoskIvC1Vtr99P0PiI150F8m6nfu3Ikpkybj5IkT8Pf3l4saGjb4Cfv27FVbPSl26UoYs+SDKWs+ODdtw2IlOHZo3/6pc+jS4u5dC76pv1jOhwu8F6HWPghxy5YuVWuIXJPoievcoSNDXCbHEEdELyUwIBBrPddgwfz5WK6EG3HqwuNET5xYwCCKU3lxeZjombtw/gKWLVmCubPnyMe6c+eOevVJtqPHYS5cBob/fISYsW6yzkP5uo8fgP8yEhMdCA6OhI9PCOLjH/QcMsSRVjDE6QNDHBGli/Q4N1W88DyP/fYdWKrVSjqRoW1nOK2Rsv6JA/BfEYY40gqGOH1giCMiTXCYzbA2bS0DXPjX9WAPvKdeYYgjehxDnD4wxBGR6xMLGf76G8b/fAhzyYpIOHVavZCEIY7oUQxx+sAQR0QuL27hEhg/yAVTjoKIX79JrX0gPUNcZGS8nBP3NAxxpBUMcfrAEEdELs22ex9M+YrD+E42xLhNFask1CsPpGeIc5t0BJ27bcKp04FqzQMMcaQVDHH6wBBHRC4r0ecKLBW+gOFf7yOyS084Y5883UFIrxBnscSi/g9LkDPvWKxd/+RxRQxxlN4SbAmIjExaoJNM3BYnk7wMhjh9YIgjIpfkCA2F9eemSoB7F+HfNYQ9OFi98qT0CnGi963S5zPxZa358L9jUWsfYIijpxFHvN2+fRtB9+7hflCQPHpOlGDlZ9ZkNOLSxYvydJKHGQ0G2UZs0TNs6N9yc+xzZ8/BoHwcN2bME3stphZDnD4wxBGRy3HGxyOqR18Y/v0+LBWqIvHKNfXK06VXiPNYeg658o1DqzZr/zkv9WF6D3HHjh7FqpUr5XFoazw9sWXzZsQ8tHnzqyK2r7GYzXK/wfQgzsAVwSu9Hk/sf7hr506cOnkSp0+fluXc2bM4qxRxCH2TXxrh2tWrauskIrwN/3sY9u/bj8nu7jhy+DBmz5wFv5s30bdXb9xVHvNlMMTpA0McEbmcGPdp8kgtU56isG159Eiup0mPECde9P4avEsOpU50P6LWPkrvIe78uXMYMWwYChcoiFHDh2Pf3r3yOXnV9u3bh2ZNfsXtW7fVmhcTQU0Ep6eFzE0bN+KXn3+G0WhUa9Kf+Lp79+zBti1bcd3X94nAmJiYiD27d2PXrp0YPXIkTp44iZPHT+Do4SNwmzBRthE/k1euXMGN69fl7dRgiNMHhjgicinx6zfLVajGD3IidtZ8tfb50iPEhYZFotGvK1Gs5KRHzkt9GIdTIXuZihUqjFMnT6k1r97dO3eUMDJf9sal1O1bt+A+0U0eB/c4Ee4WLViA6OhotSbtRDi7f/8+DAYDzp8/L4dDRTgUZwr7KuFNHEUnwq+Y55b89cRxc3t371HC6V5069IF39apg9WrVskzhIcNHSp75kSvpwh3IjSfOpX655ohTh8Y4ojIZSScPgtzmc9gfPNDRPUfLF6J1CvPlx4h7vSZQJQoPQWVq85WXpStau2jGOKAI0eOoFSx4jh86LBa83z37t2TgeT4sePP7PkKDAjAiePHccf/jhK6IuU5utfV3icxwf/mjRvw8/N74v/v1StXZEASRZy7mxySRIAb+OcAOYx59swZOUSZfGavaCNCnPhaojfscdeuXVO+12PyexDz2VJi2pQpWLLYA5e9vfFH3764eOECJru54+TJkxg7ahS2bt6C2TNnYruXl3qPB+cGi6DWsnkzDFfC247tOzBn9mzZwym+NzHcKj5Py7AvQ5w+MMQRkUuwBwQivPb3MPzfu7A2b/PPkVopkR4h7tDh2yhdbipatFqjBIcnX9wFhriUhzgRPDauX4+5SijZvWsX9uzeg+lTp2H/vn1qiyTr167DFPdJMqzMmjEDo0aMkPPuZkybLgOX6Ekb/vffqF/3WwQoYU8Q/5+3bt6MQwcPynlou3ftxID+f8rAJohhzB/qf4evatSQPXhi+FQsHBBEkOzVvTsa/viTXFyQLDw8XAljU7FwwQI5zDl/7jx0aNtWhtAXmTNrtvJv3SA/375tG04r39PAP/+UPydioYMgHnvXjh3ycxHQRA+deC7E3DePRYvhe81Xfjxz5iz2KN+/8EefvjJUpgVDnD4wxBFRhnMoL6ARzdvC8L/vIPyrevKM1NRIjxAXFW3D9RtG3LptVl4An97zkdIQ5zAYEdV/ECK79kJk976aKNZ2XRG7wENJX+o/4hmeF+IcTsc/Z+hu27IFTRs3eSQEnVFCVuOGDXHu3Dl52/+2P+p8XUt5rEPy9o0bN/BV9Rq44nMZJpPpn/+fIqzV+KKanFsmxCjhrnOHDrhw7jziYuPgVALLzh074X3pkrwu7jdj2jQ0bCCCmlH25olQI4hwuX7denxZrbpcHZps5PARaN3yN1itSb2woSEhclFCSkLcvDlzsXnTJvk1RC+g+Plo1aIlZk2fIVesJrWZI4OqYDab4ePtLYdYly1ZislKiBU9cyJoimHZbVu3yY8D/ugvV7imBUOcPjDEEVGGciovXpF9B8i94MzFyiPh+En1SsqlR4hLiZSGOPut2zB+nAeG//kvDG+8p4kS9j//g4jGLV8qxImQdtnHR37evnUb9OnZS37+sOZNm8p5XoIISo1/+QWbNmyQCxEOKmHtpx9+lMOfD7t69Srq160r55glE71abVu3Ro/ff8ffQ4Zg5/Yd8jGSiR5AMZwaH/egLpn4N4ievaB7SSFO9MLV+vIr2fuWFosXLsKEceOw1MMDq1euwuXLl+W8NjEs273b79i8cZPs4UvuhRS9i6K3UMyB69y+AzxXrcIkpf3c2XNkL93BAwcxfuxYOQQrfubSgiFOHxjiiChDxbhPgfH9HDDlKoR4z7TtjeVqIc4RHoHYOfMRO2k6YqcqL8QaKDETJiF+W9Jw3/McP35chrijR46pNSqnExPHT1BCXNImySLEdVOeq4fZlWAhQtuo4SPUGsiwIuaBHVYC3LIlS+TCiceJFZoixN1Qw50Ia2IenPh46dJFLFXu16VjJ2zdskVeF2ZOn47GDX+RPW9iGFbs1Zbs8OHDMsQF30/q5RI9YiLETZ8yVd5OJoKQ6CF7ETEfrnfPnjKUCWJPOBHqRA+gGO6dMmmSDHWHDhyQ15OJIVgxxCy2O5nk5oYL58/Leh8fb9T8opp8TtKKIU4fGOKIKMPErV4HU85P5LmoMbPS1gsiuFqIy6zEv18MG+bPlRvbtm6V4UcMP1osFsyYOl0OjYqhQuHQwQNo9PPPuHDhggwz4r5ifzkxnOr70DyvwX/9hYULF2Ktp6cSDI/gvhKsHl5wIIZnjxw+gmqff47Tp07JcCJ6zn7+sQGuXnmw95rYs27OrFnqLWDFsmUyqEUobcWCAtHbJYjHFnPkqlT6DNd9r/+zaEDMxxOhT2zaK75fsUWI+LeKsPgic+fMkVuJCLf8/DBowAC5OjX53yEeT/SqJQ+nJhP7y4lVql06dZK9hlevXpH/PjGcWrXy51i7Zo3aMvUY4vSBIY6IMoTt8FGYi5aF4c0PET1khOzJSauXDXFRUTblBffFK2H1HuJEqBBDmKJXTAyVip63EcOGo1vnzjLA/d710Z6340ePwX3iRBmgRC/bJOVzMdSYLCI8AsOGDJWLEFo2a46mjRrjpx9+UEJN539Wp4qVq4MGDERDJbSJlZxiYYLoHROT/ufNnSd738TpBitXLEdYaKi8jxCqfP6Xcj/RI+axcNE/c8tu3bolhzh/+v4HuQVJ8j5yIiyuXrlSnp6wcsUK+TMlHlvMv3seEQLF15g/b56c0ybmxIntQg4eOCCHi8X3JOa3jR8zBl7btqn3Sur9CwwMxHLlZ8lz9WrZw+nu5oaVy5djiccS+Tz16dVLLvQQ7VKLIU4fGOKI6LWzX78BS9Wv5ErUyDad4Ix4+pYeKfUyIS4+PhEDB+3C4KF7cOu2Sa19Or2HOBEMRBFEeBHBR5SHe84eJ9qJ4cUoJbQ8TiwmECFPDIuKxxBtQpSw9ecffygBbIC8ryjJX1N8FLfl5+rXFwsgRCB6FhH6Hv65SH5MIflxHybait7Eh+fXPY/4Hvbt2SsDn5gTKHoLxcINsVJWbFMiipgbJ4ZTxXVB/ByJ4d1dO3f9s3rVrPw7RE/dgf37/3k+xTDwkEGD5Ore1BL/Noa4zI8hjoheK0dIKCJ+aCQDXHjdBrAHvnj134u8TIi7ds2Aip/NRLmK05UX3werFZ9G7yEuvS1ftlT2lnkrgUb0ronic8kbQwcNlr1TyWErMxA9fiLwCeLnSAyxPkz02om5cemFIU4fGOKI6LVxKi9ekZ26w/CGOBP1CyRe9FavvJyXCXGbNl9B4WLuaNp8NaKjnz+JnSEufYlQ4+PjI+esibNYPVd7yiFHb2/v5/bu0YsxxOkDQxwRvRbOeBui/h4J49tZYCpQHPG7H9309WW8TIgbP+EQsuUaI4dUX4Qh7tUQgUM8t6I8bYiTUo8hTh8Y4ojotYidPR/G93PClDUf4lamfdXd06Q1xIn5cB07b0SBQhOxfPkFtfbZGOJIKxji9IEhjoheubh1G2HKXRjG97IjZvIMpSZ95zqlNcTd9DOhdt1FqFBpBi5evK/WPhtDHGkFQ5w+MMQR0Stl27MPpk9KwfDfjxA18G95QkN6S2uI27HjBvIVnIBvv/NATMyLvy+GONIKhjh9YIgjolcm8dwFmMt8BuMb78ParrM8I/VVSGuIW7/hMoqWmITefR/s3/U8DHGkFQxx+sAQR0SvhP3adYRXryO3Eon4sTEcoWHqlfSX1hBntsTizNl7uOlnVGuejyGOtIIhTh8Y4ogo3dnvBiCi/s8w/Os9hH9VD4m3bqtXXo20hrjUYogjrWCI0weGOCJKVw6zBdbmbWSAs3xWA4nePuqVV4chjuhRDHH6wBBHROlGHJ8V2a03DP/+AOYSFZBw/KR65dViiCN6FEOcPjDEEVG6cCoBKnrQMBjf/BCmgiVh89qhXnn10hLiUnLg/eMY4kgrGOL0gSGOiF6ew4mYce4wvpMVppwFEb8qfTfzfZHUhriEBDtGjt6P8W6HcO9eys+rZIgjrWCI0weGOCJ6abEz58L4QS6YsuaXJzO8bqkNcYFKcPu08kyUKT8Np8+m/AB+hjj9Cg4ORkhIiHor6UD7e/fuuewZrwxx+sAQR0QvJW7xMhg/zgPjh7kQ4z5NvHqoV16f1Ia4XbtuoHipyWjSdBWMxmi19sUY4jKO0/lyp3yI+0dGRiIiIgJWq/WREh8fDz8/Pxw7duyJr3Ph3DmEWyzwXL0aa9eswc0bN3D08BFcungRfXv1RlBQkNrStTDE6QNDHBGlWdySFTDmKAjju9kQPXxshgQ4IbUhbsq0Y8iZZyz+GJC6eXt6D3E+3t5YvWoVduzYgX379mHXzp3YumWLvH1g/37l9i6s8fTE6dOnZYhIL9HR0TJEuU+YiBvXr6u1qXfsyBHs2bULJ44fx3ElsJ0+dQrnlZAmHrtl8xYYMWyYDHQPO3L4MGZNn4FVK1di+dJl2LB+AwLu3pX3mT5VedPiohji9IEhjojSJM5zPUy5i8D4dhZE9R8MZ9yjL36vU2pCnOhp6dJtswxxs+ekbvWs3kNcz9+7o2mTJli1YgW2bd2GqZOnoECevOjfrx92bt8uA1yXTp3QrnUbhEekfK7hi4hgtWnDRlQsVw47vLzU2pdnMpngffGiDKYizD3OYrHg2NFjmKmEuOlTp2Lo4CHYuHGjDKwTxo2Hx+LFsgfvsrcP1q1Z+8hwa0ZjiNMHhjgiSrW4tRtgyqsEuLc+RlSv/nBGpXxI8lVITYgTw6cNGi5D6XJTsW+/n1qbMnoOcSIUDP7rL9y4fkOtAW4pAaZk0WLYsmmLWpPUazb877/hfzt9N3gWj/vdt/WwQwmLaSHmsIkh0NvK9yV6EcXtPbt3Y7K7u/z/umrFSlw4fx4Ws/mfIVVDWBgu+/jg0IGDqFXzS/z15wAl7J3HSiXEDho4ECdOnJC9joMH/iV76YwGg7yfK2CI0weGOCJKlbh1IsAVheHNDxHZrRecygtgRktNiDt+4i7KVpiOml/Px72g1PUW6TnEiRC1bu06JeRY1Brg6pUrKFWsONYr9Q/zXLUKd+7ckUHpuq8vzp45g0uXLiH8sbNzE2w2XL9+Hb5KGzFXLUwJTeLzW363YLfb1VZJzEq4avDd99i2dasSxI3yfn43/VK8sMBsMss5bPcCAzFrxkzMnjlTDgcvWrAAmzduxIzp03Hu7Fn8PWQo/P391XtBhroVSkAbOWy4Etz+woxp0+ScONEzJxc3BAUp4XaQEppebs5eemOI0weGOCJKsbh1m2AqWByG/3yEyI6/w2m1qlcyVmpCnNd2XxQrMRmNf12p1qScnkOc6J16fNL/s0KcCBCy527gQLRt3RoXzp3H0iVLlOeuC3yvXVNbASYljInevc8rfSaHLLd7eck5dp2U8DFn1qxHgpwY2vyu7rdy3prXtm2yXdfOXTB9ytQUBTkRIPv27iMXMoggJ+bELVnsgfZt2v4zlCqGRsXji5WogiHMgG3K17mjhDoxfCx6AUXQO3TggBxSFUH16tVrGPjnANnelTDE6QNDHBGlSNy6jTAXLAGjGuAcj/WqZKTUhLiwsCjs3nMTJ08GqDUpl9IQZzTGYNjwvfij/3YM+GvXI6VPPy9MnnJUCRVP9mCuXHUR/ZT7/Dnw0fv0/3OnUrcTh4886CFKdvOmEUOHKV/rzx2P3EeU3n29MHPW0+f9iXpxPbltz97bsGz5BSWtqQ1S4FkhThCBb7sSto4ePixvi/83ItCJeWUPh0ERriqUKYtpU6aoNcBSjyX4ts43Mrgls0ZE4IvKn2Ps6NFqDbDGcw1qf/W1DFsvIsLbgD/6/7Mi9aASxCaMHSfn823dshWhIaEylLlNmICw0FB5H7GAISoyUn4fQ/4ahOu+1+U8OlF3/vx5nDp5Ui7mmDJpkmzvShji9IEhjoheKG7NepjyJA2hRnXt5TI9cMlSE+JeRkpD3J07FpQsMwU5co9B3gLjHykfZx+F2t8sxP37Tz6H3XpsRtZcY5An/6P3yZV3nFI3DvPmn1ZbPnDk6B0UKzkZOfKMfeQ+onyYZSR+/HmZ2vJRP/y0VF5PbvveRyPQqfPGdAtxgghLK5Ytx+wZM7F18xa54KFXj57q1SRi3pmYbyYCX7L169bJEBcWGqbWJPXE1fn6a2xYv16tgeyRq/N1rRRt8xEVFYU/+vSVgWuSuzsuX76MvXv2YPmyZdijfOzetZt8PHE9VF2gEBAQgN27dsqA2b/fHzhy+Ah6/N5drpAVPwvz582T8+FEvathiNMHhjgieq641Wthyq8OoSoBzmGNVK+4DlcLcRERcVjkcRaz5pzA3HmnHikzZp3AmrXeSqh4cjXv3n1+mDn7BOY8dp/Zc09iztxTuOSdNMz3MLFx8cLF4mudfOQ+okyfcRwbN11RWz5qg1Ivrie3naZ8vmv3jdRkOPj53UTp4iWwZdNmteYBMQTZpOEv8Fi4SE74F/PHBvTvj949e8r92kSPliDmnH1bu44MUsk2btggFzGEWx709ooQVr9uXWzd+mARxY4d22XYM6RgQYG4v5gTJ1a53r51S4bCtZ6eWOrhIa+LLUPmz52LqQ+FOJvNJr/PkcNG4PTJk1i3di2mT5v2zzYkYp5cg+9/eGKY2RUwxOkDQxwRPVPc8tUw5S4Mg1iF2r2vEuBcqwcumauFuMxOhJuQ4GC5ICBPjpxwn+gmt9eIVYJaspNK6KlQthxOnTolb4sw1KpFS7Rv21YGJjGcKVw4fwHlSpXGvDlz5dw28f9w6uTJ+LRceXhfvCTbiJB05fJl5fHEsOtU2Ua0nTNrNsqXKSMXTrxIpBLiBvT/Uy7QEA4fOoQObdri4P6k70O4efMm3MZPkP+2h129chUzpk5Dgx9+xMjhw+W/VRTxeM1/bSpXsLoahjh9YIgjoqeKXbg0aSNfsQ+c2EYkMkq94noY4l4vcdzUsiVLMMnNDf369MG4MWPkwgWxEjWZeK6WK8/ThHHj4LlqtQxN+/fvV0LQCLl6VfSMiSLa9OvdG+PHjkWQ8rh3/O/I+4jHFdfE/9NopZ3Ym060GzNqFO7evYvAwEC4T5gg65Yo///jlK/3PGI7lFYtW8oh05MnTiRtL+Lmjn179+LY0aNyfpvY0FfMm0ve700EITFnb8+u3diwbh0uXryIjes3yGA0d/ZsnDl9BkePHkGLpk0xc/p0mNXeRVfAEKcPDHFE9Cjlj3/M1JkwZsknD7SP6j8IzjibetE1pSTEJSbasXL1RUyeehS3bqftxZYhLonoiRNbfohhURmyoqNlgImLi1NbPCCGOu8F3kOM2gMmPia3E71pYt6czRaf9DE+HvFx8Uq4i5RDlqJO9MKJVarJ1yMjk47JEkV8fVEnFj04HtuS5HGirQhqYuWp+F7FUVri+xAfRS+h+PdcvHABSxYvVh4vqcdZbDUi5ruJvfHEcLAg5tJ5bd36yMa+oldxwbz5T2yhkpEY4vSBIY6I/uFUXqiiR42H8YOcskQPGw1nvGsHOCElIS462oafGi5HzrzjsHP3gw1rU4MhTl9EEHp4m5N4JfSJnwEtYIjTB4Y4IpKc4RGI6jsQxreywJgtP6InTBb7QqhXXVtKQtzduxZUqDQDn1WdhStXk7aQSC2GONIKhjh9YIgjItiD7iOyXRcY3/wQpjxFEDt/sRxW1YqUhLh9+/xQtMQkNG2xGgZD2o4JY4gjrWCI0weGOCKdS/S9jojvf4HhjfdgLlIW8RsfbOGgFSkJcVOnHUPufOMxaMhu5QUubVtCMMSRVjDE6QNDHJGOJZw4BUvVr2D413uwVKgK20HX27Q0JVIS4jp33YTsucZgwcIXb0fxLAxxpBUMcfrAEEekU6LHzVy8PAz/9y7Cv6yLhPMX1Sva86IQZzLH4tv6HihReorcUDetGOJIKxji9IEhjkhvEhMRO2tu0ia+b34Ia5OWsPvdVi9q04tCnLdPCKpWn4vqX85L8/YiAkMcaQVDnD4wxBHpiMNsRvRfQ2H8MFfSHnA9+8FhMKpXtevFPXEx8pgpcdxVXHyiWpt6DHGkFQxx+sAQR6QTiTdvIaJZGxj++xFM2QsgZvwkuS9cZpCSOXHpgSGOtIIhTh8Y4oh0wLbvACzVasv5b6bi5RG3ep04kFK9qn0McUSPYojTB4Y4oszMloDYmfNgKlgiaQFDrfqwHTuhXsw8GOKIHsUQpw8McUSZlONeEKJ6/gHjB2L+WzZEdukJ+5276tXM5XWHuJUrVqg1RK6rS8dODHGZHEMcUSaUcPQ4Ir75Pmn4NG8RxLhPg1MJIJnV80LcufNBmLfgNK5eDVNr0k6EOPHCOG/uXHnoe3RUFAuLC5ZoRFqtaPNbK3kwP2VeDHFEmYgIarFzFybt//b/3oalylewee1Ur2ZezwpxTqcT4yYcQp784+E++eU3MrbF29Crew/U+vJLtGvdVr5IsrC4WmmrlNYtf0OFMmWxZvVq9aeXMiOGOKJMwu53C5Gde8D4fnY5fGpt0xn2GzfVq5nbs0JcZGQ82rRbj9z5xmHz1qtqbdqJeUZnz5zB2jVrWFhcvqxbsxaBAQHqTy9lRgxxRJlA3PrNstdNDp8WKJ40fBqVtkPetehZIe5+cKTc5LdkmanwuRyi1hIRZQ4McUQaZg+6j6j+g2HMmh/GN95HeO3vYNt/UL2qH88KcafOBKJI8Un4ocFSBAdb1VoiosyBIY5IixwOxG/cmrT327/fhylrPhnmHCH67G16VohbsvQc8n8yAb37eiH+JU5qICJyRQxxRBpjv+2PqF79leCWXwlwHyC85jeI37QVyDx796bas0LcnwN3IluuMZgxI/PtjUdExBBHpBHO2DjELVkBS+WaSXPfchVG9KDhsAdzrtfTQlxCgh0/NVyOXHnHYUs6LGogInI1DHFEGpBw+iyszdvC+EFOGN78AOHfNoBt+271Kj0rxK1Z64MJbofh52dSa4mIMg+GOCIXZr8bgOgRY2H6pDQM/3oXlmLlEOM+FQ6DQW1BwrOGU4mIMjOGOCIX5IyKQuz8xbBU/RqGN96D6aPcsLbuiMTzF9UW9DCGOCLSI4Y4IhfijIxE/IbNCK/7I4zvZoPhPx8hotZ3iFu9Fs74eLUVPY4hjoj0iCGOyAU47XbY9uyHtWkrGD/MBcO/3oPl02qImToLTrNZbUXPwhBHRHrEEEeUwRIOHkZk+24wZS8oN+w1FymL6GGjYb/hp7agF3k8xImTGrZ5+eLipWA4HDree4WIMjWGOKIM4IyLQ8Lxk4js+DvMeYvC8L/vwpy/OKK690Wi92W1FaXU4yFu+47rKFZiMlq2XgO73SHriIgyG4Y4otdIznnbvQ+R7brAlLNQ0n5vSoiL7NQdtqPH1VaUWskhLjEx6VSGWbNPIkv2Uejzh5e8TUSUGTHEEb0GDrMZcUtXwNq4JYwf55HDpuKg+sief8B28LDaitIqOcQ5nQ7Y7U70/3MH8hWcAI8l59QWRESZD0Mc0aviUALFnbuImTQd4V/WlatN5Zy3YuXkOacJ5y7KBQ308pJDHOCEyRyPnxutQOFi7jhxMiCpARFRJsQQR5TOHOERsB08gqi+A2EuVRHGNz+E8T8fwVLla0SPGIfE69eVrMHJ9unpQYgDbvqZUab8NHxWZRbuBUXIOiKizIghjiidJF65hti5ixDRqDlMWfLKXjej8jHil2ZK/ULYg4LVlpTeRIjrqPbE7d13G3kLjEeLVp6wWuOSGhARZUIMcUQvwWGxIG7tBlg7dIOl3Ocw/PsD2esmh0x79IVtzz44Iqxqa3pVRIjr3KED7PZETJl2EllzjsHQYXu4MpWIMjWGOKJUcoSGwXboKKIGDoWlcg25UMHw/96GKVchRNT7CTEz5iDxtr84gV29B71qIsR1at9ebjGyd78/OnfbJLcZISLKzBjiiFLAHhAI2+69iB45DuE16yYFt3+9B+P7OeTtqD8Hw7b3AMCjsTJE8pw4nthARHrCEEf0DPabtxC3bDWiev6hBLVv/jkOy/hONlgqVEVUv4GI37wVjntB6j0oozDEEZEeMcQRCYmJcn5bwqmziHGfiojGLWEpVQnG93LA8L/vwJQtP8zlP0dkt96I3+IF+50ArjB1IQxxRKRHDHGkW2JuW8K5C4j3XIeo3n/CUvUrmHIUhPE/HyadpFCwJMK/+QFR/QfBtn0XHEYTg5uLSg5xRER6whBHumEPDJLz1mLnLZJ7uEXU+xmmvMVgUEKbUawqfTsLzGUrI7JNJ8TOmA3bseNwREWp9yZXJkNc23Y4eeourl4zIC6OPXJElPkxxFHmk2iHMyoaidd8Eb9uI6KHjUZEk99gqfIVTHmKwPDv92UxfpQbpsKlEfFzU0SPd5dnmtp9b8AZx8UJWrNsyWI0/7UtmjRdhXrfL8XZc/fUK0REmRdDHGmX0ylPR7DfDUTiJR/Er9+M6LFusLbqAMtnNWAuUEIGNTE0anjzQ5hyF4alYjW5GW/06Amw7doL+70gOKOj1QckrVq53AO1a7XAFzUWoFqNebh126xeISLKvBjiSBMcUdGw376DhBOnEL9pC2JnzJXbesgetk+rwZQ1H4xvZZEb7YrQJrb+sJStjIgGTRDVva9sbxM9bfd5akJm5LlqCcqU/gVlK8xB0xaeSEjkmbRElPkxxJHLEIfB20NCkHj+IuI3eyFm9nxEDR4Oa5tOiPjpV1iqfg3zJ6VgfCerXDFqUAKbPFQ+S16YS1VCRMPmSrAbgth5C2HbuQeJPldkTx1lfus8lyNPnoYoWnI2Bv61S60lIsrcGOIeEx0dDZPJpN6i1AqNjYVN/VxKSIBTqXMqYUqsBrUH3kOit48SsnYjbulKxIxzR1Sv/nKI01K9tuw9E0HNlDU/DP/9KCmsiUUHYv5a/uIwl66E8K/rI7JTD0SPnYj4NRvkUKpYtOAUx1s5tHvMksViQUxMjHqLUmP92g3Ilbs1SpebgyVLz6m1lBIO5XfGEBaGxMREtYZSyul0yteLuDie0ZsWkZGRiIjgG+2XwRD3mPtBQfDx9lZv0VMlJMJptcIREgp7QADsN24i8cIlJBw5Bt9Zc2D2WIb4BR6IHjUeUb37w9q2EyK+/wXmitVgylcs6XD4D3LJTXPFytB/gtrHeWEuVFrOZwuv+yOszVojqt9fiHWfpoS19Ug4fRb20FBNB7XnuX79OkJCQtRblBob1u9G7ry9UKHSHJw8FaDWUkqIvfXOnz3LNxBpIALwlcuXYTZzDmZa3L17F35+fuot1yICuhbe2DDEPUZPIc6p/PEWh7M7gkPkfLPEy1eRcPY8bPsPwea1Ux7sHrdoKWKnzZILBqIHj5C9ZpFtu8DaqCUivm0AS81vYKlUHeaiZWHMlh/hSjAzKYFMrgB980M5R834349hfEsp7+dU2pVDeNWvZagTjxP1x1+ImTAZcR4rYNu2EwknTsPudwsOs0X9LvWDIS7tNm06gZx5hqFKtXkIDeW2MKkhQtyFc+cY4tKAIe7luHKIE/9vDx86hF07d6o1rokh7jEyxCkvpq+E2ChW9CKJIhK+6NGy2ZJKfDyccXFJQ4/KH1NntFIio+C0RsphQjkcaTDCfu8+7Lf8ZeCSvV+nziLh0BHYdu5F/OZtiFu9FrEieM1diJjJMxAz3h3RQ0bKHrGorr1gbdVRzi+LqN8Q4XW+l+d+Wj7/EpaKX8h5ZSJkmfIWhSl7QXnMlAhghjeUQCZ6y8QqT3U/NeMHOeViAlPOT2R7c+EysJSrguDKNWD5pTmievRD9N+jEDtlJuI818O2Zx8Sz5xDou91eQ6p+Lc4Y2LVJ4YEhri08/TcjZKl/0TP3l6Ii+OwYGowxKUdQ9zLceUQJ9zyu4UWTZuhVYuWOHbsmEv2zDHEPSYkOBiXN29B4qGjsO07mNQrtXc/4r12In7rdsRv24H4DZvlLv9iiC9u+eqk0CTKgsWInTkXsTPmIHb6bMS4TUkKUSPGykAT/dffcpNZUSJ/74PIzj3kxrKRrTrA+msrWBu1kKspI+r9hIjaSsD6ohYiKlVHRLnPEVGsPCKUgBVRpCyshUrDWrAkrAVKIDJ/cUQqISoqdxFE5SqEqBwFEZUtP6Kz5EPMR3kQ82FuxLyfE7HvZEPsezkQq9TFKtficnyCeOX+8crjxZeuBFvFarBV+QoJSqhLrPMDEn9sjMSGzWBv2R6Orr2BQcOA8ZMA5d+FZasA5XnA0RPA5WtAUDAg9lZTQur18+eRyBeDNAkMDJRzRCj1Vq1YiY7tO6m3KLV8r11VP6PU8r99G/HKm3BKPYPRiPv376u3XJP3pUuoWK48CubNh26dO+O4EuZstkdmfmcohrjHhAUF4Xz1WrCKY5eU4GOWJav68fHPs8HyjBKutBNDi08rEU8p1seK6f0cMHyQC6Ef5cb9LHlxL2s+BGQvgNs5C8JPCWs38hbB1fzF4FOwBC4ULoWzRcvgZInyOF6yAo6U/hT7y1XGnopVsKPSF9hWuTo2Vf0Sm776Bpu//xlbfmmKLS3bYFvn37GtVz94DRqC7aPGYrv7ZOyYNQc7Fy/BrvUbsGubF/YcOIg9hw8nlUOiHEoqB0VRroki2hw4gD37D2D2vHnYtHUr9uzbhz1792LPnj3YvVspu3YrZRfLc8riRYuwxtMTe/hcparsVX6+BvzRHz//+INyeyf27Obzl5qyw2s75s6ajW1blN9b/uylquzasRML58/HhvXr+dylsojf0xXLl2OpxxKX/Z0V/08PKa9vvbr3QN4cOZH94ywo+kkh/N61q7we5QIn+jDEPebe3bvYWe9H3ChSGtdKVcQVJRBdKlv5n3KuQhWcqVj1n3Lis2o4poQkUQ5VqYkDSlja/8VX2F2jtiw7a9bBtq/rYqtSNtauh4116mPdN9/Bs94PWPldAyz7/ics/eFnLGrQCAuVMrdhE8z55VfMbNwM039tjqlNW2Bys5Zwb/4bJrZohfEtW2NsqzYY07otRrRtj2HtOmBoh44Y1LEzBnTuiv5duqJf19/R+/ce6NGjJ7r16oUuvfugY99+SumLDsrnHXr1RoeevdChRw906N4dHbr9jg5du6GDct8OnbugfadOaK88Zvv2HdC+bbsnS5u2zyyNfv4ZrVu0lEcgPe06y7NLk0aN0LJZcz53qSydlJ/TurVqo1KFimjbqjWfv1QW8Zw1+rkh2vzWis9dKku71m3Q5JdGaNWcf/NSWzq2a4/mv/6Kpo2byM+f1sYVSpeOneT/2zIlSiKPEuSyffQxPnjnXeXvdWPcvn1bTQ4ZhyHuMWJO3PkjRxAbHILYkFBZokMflKiwsEdKpMEAq1oiDEaEG5OKxWSSxawUk9ksi9FikcWglLDwcIQqJSQiQpZgqxX3lRIUKUok7isfxW1RxLWkktQ2uYSKojyGeCxRDOFJjy1K0tdK+rqiiDkbr6McPHAAd+7ceeo1lueX06dPw9fX96nXWJ5dIq3hmD93Jlq1bIFQ5Xf0aW1Ynl3Ec3ZI+b0Nuhf01Osszy5G5W+9GF67devWU6+zPL9cunQJ586ee+o1VygWs/I6qry2d+/aTQa3fLly44f69WUPoiHMIOeTZjSGuMeIEHf52jX1FqWWmD/ACdJpI97VcY/C1IuOcWKy+zx06thFueVMqqRU8VF+b13hBUmLritvvDiXNW3EfDixuMGVLVuyFPmV8Pbjd99hqYeHy/2/Zoh7DPeJeznnz53j5o1pxNWpaTN77hmU/3QiunabrryBsKq1lFJcnZp2XJ36clx9deqpkyflNAOPxR4wGY1qrWthiHtM0L17uHTxonqLUuvsmTMIDw9Xb1FqXLt2DcHBPNs1tdp1WI8s2ceiX7/liI9niEstEeLOKb+3DHGpJ0KceNPPHvS0EVNvbt68qd5yLXa7XQZ0Mc3AlTHEPUbMDxHd45Q24oeeQwtpI4ZTDQaDeotSIiIiDt83WI5sOQcrIW6aEkgYRFJL7H11Vfm9jY3lvo2pJULczRs3+MY1jYKCglx+ONXVMcQ9JkH5g8Y9f9JOnCEo/rBR6omfO55fmToXL95Hza8XI0euPujTewQSE3iGZWqJ44XilADH39u0Eb+3oteGUk/0ArvSnmtaxBBHRJq1dq03ylaci5y5OqN3z75KCOYLAhHpB0McEWnW+ImHUKTETBQr1gm9undWQhxXWBKRfjDEpYE4HunChQuwWjmJOi3EkKE4qkYMvVLKiFWrYvsWf39/tYZsNjs6dN6IYqVm4ttv+6NHt04McakkFnGtXL4CixYsxIZ162EIC1OvUGqI38/169ZxZX4qidWfW7dsweaNG3FReU2l1GOIS4WrV67AbfwErFq5ApuUH7oxI0fi+PHj6lVKKY/Fi9GiaVOE8QXjhWKio7Fi2XJMnjRJeaFdgD/69kX3bt1w7uxZtYV+WSPiMHDQLnz34yp06Twav3fpyL3OUmHjhg2YPnWq/Oi5ajX69OyFH+rVxwn+TUsVsar3967dULVyZTlRn15MbNcxcfx4zJoxQx65tXH9enlqiDjiilKHIS6FDuzbh1YtWmLvnj1yJZIoP//YAEP+GiQnBlPKiPBR75u6qF61KldivoCYaD5j6jSMHTkK9+7dQ7QS6ALu3kX7tm3xdY2a8k2FnjkcTuX3MA6hodGYP3c+OrZvxxCXQmJbh2/rfIOdO3aoNUootlrR/Nem+Kp6Df5uppBY0CB6klq3/A01vviC+zymgFgFLc4eHTRw4D+LCG3Kx++UNxDizQSlDkNcCog9gL6r+y3cJkxQa5IcPnRI7otGKSP2U1qxbBmmKe/+q1f9gi8ULyCGm39t1BgtmzVT3ig8WDl49epVeRDznFmz1Bpa6rEYHdoxxKWU+BkSZ36Kg9sfJg5zf//td+S2GfRi27ZslUF41YqVqPLZZwxxKSCG7UsUKSrfkMYp4S0wIEBOsYm32fj7mwYMcSkg5ox8VqGiDG2iJ078wq719ITFYlFb0IvcCwzE1MmT5c7mnqtW4YvPP2eIS4GjR47gyOHDj4Q470veyJU1G+bNmavWkMeiRQxxqeF0yiOPHp6XKnp+e/XoroSRypwblwJi2Hnm9BmyN068HnxeqRJD3AuI56pf7z6o/eVX2LJ5M7y2ecn5cG4TJuL0qVNqK0oNhrgUGDF8uDz4dub06Th75qw8tHfd2rVo26o1Ll7g6Q4vEhUVhdkzZ8lJrMKypUsZ4tJI/BHs2rkzvq9XXwZjSsIQ9/LEUFb1KlWxfft2ThF5gRvXr8sRheSTGlavXCVDHP+mPZ+YEiKOsSpTvCRWK2/mQ4JD5ObwO5WfuXp1vsHRw0fUlpRSuglxwfeDsWa1pyxrPdc8s6xcsUKGjYc3vhw5fATy5MipvGvYptYk6d2jJxo3/EWGlMxMzFvYt3cfVinPzdOes+TiuXo1Nm7Y+MiqXRE6xJDNoUOH1BrlxUJpV61KFcTqZHWqeMcu/mCtUd6tP+15E0W8gG5cv0HOfXuWuPg4jB45Eq1atHDp8wZfh8REBwzGaLlCVWCIezniTWmr5i1kry89n+htE6MKYnqICLuiLF+6DJ9/WknuXMBNk59N/H5269JFCbyfPXEWqVjY0LFde27+m0q6CXG+13zlIoRhQ//G8L+fXQb+OUC+2IrwkWzWzJmoUKYsAu4GqDVJ5s6eg5xZsz1Rn9mIkCr+rYMGDHzqc5Zc/h4yBKOUkCGOLku2a+dOtGjaDBvWrZNhbtOGDejXpw8qlC2L+XPn4vjRo2rLzEn8gRdvDIYMev7P3t+DleduxEg5VPo0YujebeIEjBszRg5JizkkFh0fun3zphFNmq7C+AmHEW9zYsWyJQxxaSD+zq1auRJjRo1EQEDS3zGx7Qh7lJ5N/E0TK8QXK28cFsyfj+XLlqFzh44oW7KU8vs5Frt37VJb0tOIv3e1v/r6kc4Ph92Bzp064qcffuQ0pVTicGoKiHenX3xe5YlFDFMmTUaRggVlLx89nXi3KrYwEOFt8+bNck5ht86d8Wn5CnJY9cL582pLehbx8zXJzV0uw09+l3/o4EE5hKNXW7ZdQ47cY/Frs9XKO3clKC9fyhCXSmKFvRgSFH/HRA+wuH371i307tlLnoFMT2c0GnHZx0e+Hoi9zbyVv3Fi65/yyht9sV3GHe7l+FwiBItFILeUn7Vkovetbu066NOzp3yDSinHEJcC4t2qGDr9848/YLUmHe4ufgB/btAAo0eOYvd5ColfTjGZWuxHVbxIUZxT/ghyc8xnE7144kWift26+Lrml+jftx/69u6NDm3b4ZtatbF+7Vq1pf64TTqC3PnGY+y4pH2lli3xYIhLBTHloVePHsidPQcqVagg36SKxVslixZF08ZNYDYnzfWi5xPbZZw7dw5dOnZC6eIl5Ia/gQGcq/o84vV06ODBGNC/P65dvYrrvr6YP3cefvnpZ/mmn1KHIS6FxCaOY0ePwZzZc7B2zRrZJTxl8mS50SOljJgMPHXyFPTs3kMGETGEuGP7dvUqPS5BCb0zpk3DT99/j5bNmqNZk1+VF9jGaNjgJ/mi4XfzptpSX8T+cG3ar0fOvGOxZm3SH/0li7nFSGqIRTEL5s2TP18zpk/HtClT5Ma/k93cZG/Sw9NJ6Nlu3rgpt2URJ14sW7JELn7b7uWlXqVnEb+nYpqJeD1wV37mxEiD2HKEUo8hLpXEO4WDB/br9gX0ZYgNHSOtViTYbHAoLxJiVZJYrURPJ3p4xZuEx4t4zvR8ZJnZHIOaX89H8dJTcORo0h9+Lmwg0iauhH45DHFEpClnzgSiXMXpqF13EfxuJS3uYIgjIj1iiCMiTVm85BzyFhiPtu3XIyYmKbQxxBGRHjHEEZGmzJ13CoWKumHI0D1qDUMcEekTQxwRaYrJFINLl+4jICBcrWGIIyJ9YogjIs1jiCMiPWKIIyLNY4gjIj1iiCMizWOIIyI9YogjIk0Q20mJA++ftq8UQxwR6RFDHBFpQnh4LNzcj2DUmAMIDHz0uDaGOCLSI4Y4ItKEW7fMqFJ9DgoUdoPPlRC1NglDHBHpEUMcEWnC8RN3UbDwRNT73kP2yj2MIY6I9Ighjog0YfmKC8iTfzx6990m58Y9jCGOiPSIIY6IXJ7d7sSQobuRO994zJ5zSq19gCGOiPSIIY6IXF5MjA0/N1qOfAUnYO8+P7X2AYY4ItIjhjgicnm3/S0oW2E6PqsyC5evhKq1DzDEEZEeMcQRkcs7fiIApctNw08NlyHMEK3WPsAQR0R6xBBHRC7PYonFocP+OHkqAHa7Q619gCGOiPSIIY6INI8hjoj0iCGOiDSPIY6I9Ighjog0jyGOiPSIIY6INI8hjoj0iCGOiFzaps1XMG7CQVx5ytYiyRjiiEiPGOKIyGXF2xLRuesm5MwzFgsWnlFrn8QQR0R6xBBHRC7rbkA4vvtxKUqVnYpTpwPV2icxxBGRHjHEEZHLEsFNBLjqNefBZIpRa5/EEEdEesQQR0Qua8PGy3IotW37dUpAs6u1T2KIIyI9YogjIpfkcDjlgoY8+cdjgtthOJ1O9cqTGOKISI8Y4ojIJVmtcfit9RrkLTABW7ddU2ufjiGOiPSIIY6IXFJwSCRqfDUPnxRxg7dPsFr7dAxxRKRHDHFE5JJiYmzY6uWLFasuygPwn4chjoj0iCGOiDSPIY6I9Ighjog0jyGOiPSIIY6INI8hjoj0iCGOiDSPIY6I9IghjohczvkL97HI4xy8fULUmudjiCMiPWKIIyKX4zbpCLLmHIP+A3aoNc/HEEdEesQQR0QuxW53oOvvm5Ez71jMnXdarX0+hjgi0iOGOCJyKcHBVvz40zKULT8Nhw77q7XPxxBHRHrEEEdELuXkqUCU/3Q6vvx6PsLCotTa52OIIyI9YogjIpeydp0PcuUdh9/arFVrXowhjoj0iCGOiFyGw+HEqNH7kTPPOExwO6TWvhhDHBHpEUMcEbkMqzUe7TtuQI7cY7Fl6zW19sUY4ohIjxjiiMhlxMcnYvuO6xgxaj/uBljU2hdjiCMiPWKIIyLNY4gjIj1iiCMizWOIIyI9YogjIs1jiCMiPWKIIyLNY4gjIj1iiCMil+Dvb4bnWm9cuRIqtxpJDYY4ItIjhjgicgkeS8/hkyJu6NVnm1ylmhoMcUSkRwxxROQS/hiwAx9nG4Ux4w6qNSnHEEdEesQQR0QZLjrGhka/rkThYu7YuOmKWptyDHFEpEcMcUSU4Xwuh+CLGnNRTSlXrxnU2pRjiCMiPWKII6IMt37jZRQoNBGNmqxM9Xw4gSGOiPSIIY6IMtyosQeQLdcYDBqyW61JHYY4ItIjhjgiylBWaxxatV2H3PnHY8PG1M+HExjiiEiPGOKIKEPFxNjgucYb/QfswG1/s1qbOgxxRKRHDHFEpHkMcUSkRwxxRKR5DHFEpEcMcUSkeQxxRKRHDHFEpHkMcUSkRwxxRJRhfH0N2LzlKvz9LWpN2jDEEZEeMcQRUYZxm3REbvI7we2wWpM2DHFEpEcMcUSUIZxOJ35rsxZZc4zGgkVn1Nq0YYgjIj1iiCOiDBEUFIEvay1AhUozcOJkgFqbNgxxRKRHDHFElCF27/FDyTJT0KDhchgM0Wpt2jDEEZEeMcQRUYaYOu0YcuQeiz79vNSatGOIIyI9YogjotfOZrOjS7dNyFtgAhZ5nFNr044hjoj0iCGOiF67m34mfFV7AUqWmYozZ++ptWnHEEdEesQQR0SvndEYjVmzT+CvQbsQGRWv1qYdQxwR6RFDHBFpHkMcEekRQxwRaR5DHBHpEUMcEb00i9kMs8kMk8kEh8Oh1qaM3Z6ImJgY5aNd3habAEdGRiI6OuXbjjDEEZEeMcQRUZrZbDasW7sOY0aNwtzZczB96jTl42yEh4erLV7s4sUL+LZ2HXRs2w5DBw9Gr+490LVTZxw5dEht8WIMcUSkRwxxRJRmHosXo13rtjAajPK26IUbPvRvDP5r0D89a487feYe9u33g8GY1NN29MgR1FVCXMtmzfDLTz8rIa479uzaLXvkUoohjoj0iCGOiNJEDHnW++YbzJ87V61JcurkSdT68itcvXpVrXnA4XCiafPVKFzMHV7bfWXdrp07sWD+PBn6IiIiZF1qMcQRkR4xxBFRmty8cQNlSpTE5o2b1Jokd+/eRY0vqmHZ0qVqzQP37kWgarU5KFdxOk6eCpR1IsS5T5yI4Pv3ce7sWZw+dQohwcHyWkoxxBGRHjHEEVGaHD18BKWKFcd2r0ePzQoJCUGVSp9hwrjxas0D27x8UbTEJDRtsRrh4bGy7tjRo+jcoQPWr1uHI0eOYKnHEnRq30EOs6bUUg8PdGzfPlVDsEREWscQR6RjcXFxOLh/v1ycsGnjxmeWjRs2wGvbNkRFRan3BI4cPqyEuBLPCXHj1JoHho/ah+y5xmLosD1qDeRj3rlzR72VZOzo0ajzdS0YwsLUmgfEClj/27dxx99f3i/o3j24T3RDi6bNcPPmTQTcvSuviTbiGhFRZsUQR6RjMTHRWLFsOcaNHYtJbm7PLG4TJmDWjBmPrDq9cuUKShYt9tTh1GpVqmLBvHlqTZKY2AS0+M0TBQtPxGrPS7IuMSFBDp/ev39f3k62ZfMWlC9dBnt27VJrHjAYDDKs+fn54datWwgKCsJE5ftr/uuv8PX1hb8S7MQ10UZ8L0REmRVDHJHOiQUFiYmJLyxiP7eHWSwWVFfC2qIFC9WaJKeUUCbmxJ09c0atSXLuXCA+qzIDVarNwdWrST1sYaGhqFS+ApZ4eMjbyVYuXyHn24mAlxKcE0dEesQQR0RpIrYTEfPe2rVqLTfrTTZm1Gh0bN8O8fEPzkSNjY3EoMEr8XG2UWjSdLUSCpO2H7FaI9GnZy94PTQkazFb8GujxujSqZMc7k2J5BAnwiYRkV4wxBFRmoltRqZOmoyRw0dg9apVmDJpEv4ePAR3H5vjZrPFYcqU5WjechZWeXqrtUkC7gbI+4l5cDOmT8cfffthohIOxdy3lGJPHBHpEUMcEb0U0SMXGBiIGzduwN/f/5FeuYclJNgQGxsj94p7nNVqxS0/P/heuyYXI6R2lSlDHBHpEUMcEWkeQxwR6RFDHBFpHkMcEekRQxwRaR5DHBHpEUMcEb1SFkssNm66Am+fECVkPf1Q/JfFEEdEesQQR0SvlDhqK0/+8fit9dp/jtpKbwxxRKRHDHFE9Er9NXgXsuYcgyF/74Hd/mrONmWIIyI9YogjolcmIiIOPzRYik+KuGHDxstqbfpjiCMiPWKII6JX5ujROyhXcTpq1VmI2/5mtTb9McQRkR4xxBHRKzNj5glkzz0G3bpvhiOVG/imBkMcEekRQxwRvRKRkfFo33ED8n8yAYs8zqq1rwZDHBHpEUMcEb0Sl6+EyqHUEqUm4/p1g1r7ajDEEZEeMcQR0SthMsXAc6035sw9BZvt1ewPl4whjoj0iCGOiDSPIY6I9Ighjog0jyGOiPSIIY6INI8hjoj0iCGOiDSPIY6I9IghjojSVUhIJNwmHcGu3TcRG/t6QhVDHBHpEUMcEaWrjZuuIH+hifjhp6UwGmPU2leLIY6I9IghjojS1cBBO5Et1xj8PXyvWvPqMcQRkR4xxBFRugkMjEC975agZJkp2Lf/llr76jHEEZEeMcQRUbrx2uGLgkXcUO97D1it8Wrtq8cQR0R6xBBHROkiMdGBYSP2IWfesRg5er9a+3owxBGRHjHEEVG68Pe3oMaX81C42CQcPXZXrX09GOKISI8Y4ogoXZw9dw/lK05Hve88Xtuq1GQMcUSkRwxxRJQuxJ5wR47cweEj/nJo9XViiCMiPWKIIyLNY4gjIj1iiCMizWOIIyI9YogjIs1jiCMiPWKII6KXEhNjQ3x8onorYzDEEZEeMcQR0UtZvcYb9X9YglWrLqk1rx9DHBHpEUMcEaWZWJHaudsmZM0xGjNmnlBrXz+GOCLSI4Y4Ikqz8xeCULbCNFT8bAau+Yapta8fQxwR6RFDHBGl2aw5J5Ezzzh07rpJCVB2tfb1Y4gjIj1iiCOiNImIiEODn5ch/ycTsWnzVbU2YzDEEZEeMcQRUZrs2euHIsUn4dvvPRB036rWZgyGOCLSI4Y4Iko1p8OJzl024qOsozB+4iE4lNsZiSGOiPSIIY6IUs1ms2PchEP47selOH4iQK3NOAxxRKRHDHFElCai780aGY94JdBlNIY4ItIjhjgi0jyGOCLSI4Y4ItI8hjgi0iOGOCLSPIY4ItIjhjgiSrGz5+5h6bLzuHcvQq1xDQxxRKRHDHFElCJOpxMdO29A1pyjsWDhGbXWNTDEEZEeMcQRUYqcPXsP5SvNQLmK03H02B211jUwxBGRHjHEEdELOZ3AX4N3IXvusejTb7sSlhzqFdfAEEdEesQQR0Qv5HM5FFWqzUHpclNx8NBttdZ1MMQRkR4xxBHRC40df1D2wrXvuAF2u2v1wgkMcUSkRwxxRPRc3t7BqFx1FoqWmITde26qta6FIY6I9IghjoieSyxiqFhpBpq39ERMjGuGJIY4ItIjhjgiei5x2P3lyyG4edOo1rgehjgi0iOGOCLSPIY4ItIjhjgi0jyGOCLSI4Y4ItI8hjgi0iOGOCJ6wjXfMCxdfgFBQVa50a+rY4gjIj1iiCOiR4h94AYO3i33hRs+Yh8cDtdPcQxxRKRHDHFE9IiDh/xRquxUeTrDocP+aq1rY4gjIj1iiCOif8TGJuC3NmuRPddYDBm2F3YN9MIJDHFEpEcMcUT0D4+l51Cg0ER8+fV8XL9hUGtdH0McEekRQxwRSTeU0PZlrQXI/8kELFx8Vq3VBoY4ItIjhjgiQnSMDX37eSFL9tFo13G9HFbVEoY4ItIjhjgiUsKPHTNnncC39RfjzNl7aq12MMQRkR4xxBHRP0JDo5CY6FBvaQdDHBHpEUMcEWkeQxwR6RFDHBFpHkMcEekRQxyRToktRC5cvK/e0jaGOCLSI4Y4Ih0Sc99+argclT6fhVOnA9Va7WKIIyI9Yogj0hmxcOHPgTuQM+841P5mIS5fDlGvaBdDHBHpEUMckc7MnX8aBQtPRLlPp+PAwVtqrbYxxBGRHjHEEenIVi9flKs4HQULuWGRh7ZOZXgehjgi0iOGOCIdcDqBo0fvoGq12cidbxxGjTmgBB67elX7GOKISI8Y4oh0IDIyHs1arMbH2Ufj9+5bEBERp17JHBjiiEiPGOKIdED0xO3ecxMDBu5EUJBVrc08GOKISI8Y4oh0xOFQ0lwmxBBHRHrEEEdEmscQR0R6xBBHlAnt2n0T+/b7qbcyP4Y4ItIjhjiiTMZzjTcqVJqBTyvPhI9PqFqbuTHEEZEeMcQRZRJxcQmYNuM4SpSegrwFJ6BPXy8EB0eqVzM3hjgi0iOGOKJMQKw47dN3G/J/MhGFirnDzf0wYmP1E2gY4ohIjxjiiDRMbNi7Y9d1NPhlOXLmGSeHUJctvwCn2FNERxjiiEiPGOKINCw+PhEtWq1B1pxj0KjJShw/cVe9oi8McUSkRwxxRBp34MAtDB22B/fvZ75NfFOKIY6I9IghjkgjxNCpOD6LnsQQR0R6xBBHpAFnzwWhT7/tGDRkN6KibWotJWOIIyI9YogjclGi5+3Cxfv4a9AuVK46W857q/DZDFzyDlZbUDKGOCLSI4Y4IhcTEhKJnbtuoFv3LSj/6XRkzzUWJctOQedum3D4iD9sNrvakpIxxBGRHjHEEbkY90lHkCP3WOTMMxYVK89An35e2L3XT3fbhqQGQxwR6RFDHFEGiYmxIT4uUb31wKYtV9Gg4XJMnnoM5y/ch8PB8PYiDHFEpEcMcUSvgd3ugNkcAz8/E7Zuu4a/h+/F9w2WYtXqS2qLB8TebxZLrHpLX8xmM8It4eqtlGOIIyI9YogjeoX8bpmwYuVFDBuxD42brkS5itNRsLAbcuQeg1z5xin1e9WW+hUSEoJ1a9dizerVaPhjA0ybOlW9knIMcUSkRwxxRC8hMdGBO3ctOH0mEAZDlFr7wPIVF5C3wHh5JJY411Qci9W2w3o57030yImQp3eBAQFYsngx1q5ZgzLFS2Di+AnqlZRjiCMiPWKII3qIGPYUW3s8bQ3BJe8QrN/gg1mzT2Lo8L3o0GkDfm60HDW/no/PqsyCp6e32vKBK1dD5cKEyVOPYs/em7jpZ0R4RJx6lR5XvUpVhjgiohRiiCNNEys2xZYbcXEJiIqyITw8Ts4nMxiiERQU8dS5ZSKkic1z9++/JRcRrPK8hAWLzmLqtGNyT7ZRY/YjNOzJXrVBg3fLXrXc+cYhW64x8mOxkpNkgPu6zkKsXHVRbfkoEQzpxWJiYlDt8yoMcUREKcQQ9xixEvDatTAcPHQbR47eeaKIehEQHmcyxeDQ4WffRzym/bFVhiJ8XLwU/NT7if3AxGHmVuuTxyzdU8LJs76/Awdvwf+ORW35QExMAg4evC17g/bu83uk7Np9A8eO30X0YycBOJX/fH0N8rpoJ+67fcd1bN3mK8umTVfh729WWz9gVJ6LdesvY+16H6zbcPmRsmTpeflYCQmPBhu73Qmv7dcxe+4pzJx9UvZ2TZ1+DO6Tj8LN/Yjsybpxw6i2fuCE8hz16rMVv/fYgk5dNqF1u/Vo1WYtmjZfjdp1F2LSlKNqywfEc1rxs5ly81wRyvLkf1CyZB+NTz+fCW+fELX1A6s9vdGl6yb8pYQ58f0sW34BO3Zex7nzQfI5F6tNKe1eJsQtXrgQbVu3Vn6OuIceEekHQ9xjxMrA4SP34fMvZqNWnYWPFNHbUrX6HCUo3VZbP3D02B18UWMOvq694In7ifuI1Yiit+hhZkssuinh44sac5+4z5e15qPe9x64fCVUbf2A5xpvVKn25PcniugVWrDwjNrygcDAcHz7nYf8Xqp/Oe+RUrnqLDRtsVrO7XqYUwmdk5UQJB4zuW2VanPkcyNOEChVdio81z45hHjxYjAqVJohN6qt+NmMR8onRdzQvuOGJ46OEs97i1Zr5Lwx0aZQUVHcUbiYO/IpdaXLT8Pe/bfU1g+s9rwke8OKlpiMEqWnoGQZUabK7y1PgQlK4NqltnxAhOeuv29G419XomPnjejbfzsGD90j56nNmn1CBlARyh8n/v+JMEyPCgsLg+fq1Vg4fwE8Fi1+ZhHXt2zerPy/fvr5rykNcWIhxJUrV3Dt6lX4XruGmzduYMb06fi9a1f4+Pgobzx85TXR5pafn3ovIqLMhyHuMWIulMkco4SeCNnj9Ui5FyHrY2KffCGPVeoCletP3Ecp4j4iFDy+WavomQsLi3r6/ZS6oPtWxD9ld35xCPpTvz+lBCj1EU+ZcyUm4AcHRyIoyCof9+Ei7hcaGoUEpc3jxPCkuJ7c9r4owUkfRf3jvXeCCEniaz2t3FeK2Rz7xHMhbopQK74P8Zw8XMTQpuj9FEHvceJ5f7x9chEnH1itTz4X4muJoVfxPIpQJr5f8fxQ2ogQt3L5CsyZNRsL5s17Zpk7ezY2b9wI20uGuKgo8f83TPmZMMhiNBplsLsfdD/ptlov2ogtS4iIMiuGOCJyCWI+mwhx7hPd1BoiInoehjgiylCJiYkwm0zw8fZBqWLF0btnL9mLZrVa1RZERPQ0DHFElKEC7t7FhLFjMXLYcPTq0QMD/vgTo0eOxPKlS9UWRET0NAxxRJShxIpSMR8uLi5p/uLjt4mI6OkY4oiIiIg0iCGOiIiISIMY4oiIiIg0iCGOiIiISIMY4oiIiIg0iCGOiIiISIMY4oiIiIg0iCGOiIiISIMY4oiIiIg0iCGOiIiISIMY4oiIiIg0iCGOiIiISIMY4oiIiIg0iCGOiIiISIMY4oiIiIg0iCGOiIiISIMY4oiIiIg0iCGOiIiISIMY4oiIiIg0B/j/AdfTQlSpdXriAAAAAElFTkSuQmCC;" vertex="1" parent="1">
          <mxGeometry x="150" y="200" width="389.01" height="300" as="geometry" />
        </mxCell>
      </root>
    </mxGraphModel>
  </diagram>
</mxfile>
